# xmcd CD database file
#
# Track frame offsets:
#	150
#	13840
#	27100
#	38255
#	50867
#	61910
#	75705
#	86830
#	97293
#	109058
#	119743
#	134385
#	144340
#	156130
#	173135
#	186593
#	201470
#	214995
#	227188
#	243028
#	259505
#	274735
#	290715
#	302553
#	317057
#
# Disc length: 4432 seconds
#
# Revision: 0
# Processed by: cddbd v1.4PL0 Copyright (c) Steve Scherf et al.
# Submitted via: CDex 1.50Beta7
#
DISCID=75114e19
DTITLE=Ben E. King - Collection 25 Songs
DYEAR=1994
DGENRE=Blues
TTITLE0=Stand By Me (King/Leiber/Stoller)
TTITLE1=Spanish Harlem (Leiber/Spector)
TTITLE2=Save The Last Dance For Me (Pomus/Shuman)
TTITLE3=Don't Play That Song (Ertegun/Nelson)
TTITLE4=I Who Have Nothing (Leiber/Stoller)
TTITLE5=Amor (Ruiz/Lopez/Mendez)
TTITLE6=This Magic Moment (Pomus/Shuman)
TTITLE7=Young Boy Blues (Spector/Pomus)
TTITLE8=Goodnight My Love (Motola/Marascalco)
TTITLE9=How Can I Forget (Whitfield/Strong)
TTITLE10=It's All Over (Leander/Russell)
TTITLE11=I Count The Tears (Pomus/Shuman)
TTITLE12=All Of Your Tomorrows (Unkown)
TTITLE13=Into The Mystic (Morrison)
TTITLE14=Love Is (King)
TTITLE15=Only You Know And I Know (Mason)
TTITLE16=Poison In My Mind (Unkown)
TTITLE17=She Does It Right With Nothing But Her Loving Ways (King)
TTITLE18=Supernatural Thing (Grant/Guthrie)
TTITLE19=Take Me To The Pilot (John/Taupin)
TTITLE20=The Beginning Of It All (King)
TTITLE21=Travelin' Woman (King)
TTITLE22=White Moon (King)
TTITLE23=Love Is Going To Get You (King)
TTITLE24=I Guess It's Goodbye (Ballo)
EXTD=YEAR: 1994
EXTT0=
EXTT1=
EXTT2=
EXTT3=
EXTT4=
EXTT5=
EXTT6=
EXTT7=
EXTT8=
EXTT9=
EXTT10=
EXTT11=
EXTT12=
EXTT13=
EXTT14=
EXTT15=
EXTT16=
EXTT17=
EXTT18=
EXTT19=
EXTT20=
EXTT21=
EXTT22=
EXTT23=
EXTT24=
PLAYORDER=
